<?xml version="1.0" encoding="UTF-8" standalone="no"?>
<svg width="30px" height="26px" viewBox="0 0 30 26" version="1.1" xmlns="http://www.w3.org/2000/svg" xmlns:xlink="http://www.w3.org/1999/xlink">
    <!-- Generator: Sketch 3.6.1 (26313) - http://www.bohemiancoding.com/sketch -->
    <title>Combined Shape</title>
    <desc>Created with Sketch.</desc>
    <defs></defs>
    <g id="Website" stroke="none" stroke-width="1" fill="none" fill-rule="evenodd">
        <g id="Desktop-HD" transform="translate(-1385.000000, -25.000000)" fill="#CCBBA3">
            <g id="home">
                <g id="Nav" transform="translate(25.000000, 10.000000)">
                    <g id="Menu-Copy" transform="translate(1360.000000, 15.000000)">
                        <path d="M2.01154149,3.97697368 L27.3913043,3.97697368 L29.3478261,3.97697368 L29.3478261,0.101973684 L27.3913043,0.101973684 L2.01154149,0.101973684 L0.0550197533,0.101973684 L0.0550197533,3.97697368 L2.01154149,3.97697368 Z M2.01154149,14.8541667 L27.3913043,14.8541667 L29.3478261,14.8541667 L29.3478261,10.9791667 L27.3913043,10.9791667 L2.01154149,10.9791667 L0.0550197533,10.9791667 L0.0550197533,14.8541667 L2.01154149,14.8541667 Z M2.01154149,25.7313596 L27.3913043,25.7313596 L29.3478261,25.7313596 L29.3478261,21.8563596 L27.3913043,21.8563596 L2.01154149,21.8563596 L0.0550197533,21.8563596 L0.0550197533,25.7313596 L2.01154149,25.7313596 Z" id="Combined-Shape"></path>
                    </g>
                </g>
            </g>
        </g>
    </g>
</svg>